<mxfile host="app.diagrams.net" modified="2023-12-20T15:07:26.082Z" agent="Mozilla/5.0 (Windows NT 10.0; Win64; x64) AppleWebKit/537.36 (KHTML, like Gecko) Chrome/120.0.0.0 Safari/537.36" etag="L7RbjLnKD3LF_Vd_bAhf" version="22.1.11" type="github">
  <diagram name="Страница — 1" id="3Ra4HTQ19XPt1AhPG3j0">
    <mxGraphModel dx="1077" dy="588" grid="1" gridSize="10" guides="1" tooltips="1" connect="1" arrows="1" fold="1" page="1" pageScale="1" pageWidth="827" pageHeight="1169" math="0" shadow="0">
      <root>
        <mxCell id="0" />
        <mxCell id="1" parent="0" />
        <mxCell id="Nei-xsbEB38eFT0cJwH2-21" value="" style="edgeStyle=orthogonalEdgeStyle;rounded=0;orthogonalLoop=1;jettySize=auto;html=1;entryX=1;entryY=0.5;entryDx=0;entryDy=0;" edge="1" parent="1" source="Nei-xsbEB38eFT0cJwH2-1" target="Nei-xsbEB38eFT0cJwH2-19">
          <mxGeometry relative="1" as="geometry">
            <mxPoint x="180" y="585" as="targetPoint" />
          </mxGeometry>
        </mxCell>
        <mxCell id="Nei-xsbEB38eFT0cJwH2-1" value="" style="rounded=1;whiteSpace=wrap;html=1;fillColor=#dae8fc;strokeColor=#6c8ebf;" vertex="1" parent="1">
          <mxGeometry x="120" y="120" width="120" height="270" as="geometry" />
        </mxCell>
        <mxCell id="Nei-xsbEB38eFT0cJwH2-3" value="" style="rounded=0;whiteSpace=wrap;html=1;fillColor=#dae8fc;strokeColor=#6c8ebf;" vertex="1" parent="1">
          <mxGeometry x="120" y="160" width="120" height="190" as="geometry" />
        </mxCell>
        <mxCell id="Nei-xsbEB38eFT0cJwH2-4" value="" style="endArrow=none;html=1;rounded=0;entryX=0;entryY=0;entryDx=0;entryDy=0;exitX=1;exitY=1;exitDx=0;exitDy=0;fillColor=#dae8fc;strokeColor=#6c8ebf;" edge="1" parent="1" source="Nei-xsbEB38eFT0cJwH2-3" target="Nei-xsbEB38eFT0cJwH2-3">
          <mxGeometry width="50" height="50" relative="1" as="geometry">
            <mxPoint x="390" y="460" as="sourcePoint" />
            <mxPoint x="440" y="410" as="targetPoint" />
          </mxGeometry>
        </mxCell>
        <mxCell id="Nei-xsbEB38eFT0cJwH2-5" value="" style="endArrow=none;html=1;rounded=0;entryX=1;entryY=0;entryDx=0;entryDy=0;exitX=0;exitY=1;exitDx=0;exitDy=0;fillColor=#dae8fc;strokeColor=#6c8ebf;" edge="1" parent="1" source="Nei-xsbEB38eFT0cJwH2-3" target="Nei-xsbEB38eFT0cJwH2-3">
          <mxGeometry width="50" height="50" relative="1" as="geometry">
            <mxPoint x="286" y="360" as="sourcePoint" />
            <mxPoint x="166" y="170" as="targetPoint" />
          </mxGeometry>
        </mxCell>
        <mxCell id="Nei-xsbEB38eFT0cJwH2-6" value="" style="rounded=1;whiteSpace=wrap;html=1;fillColor=#dae8fc;strokeColor=#6c8ebf;" vertex="1" parent="1">
          <mxGeometry x="320" y="120" width="160" height="300" as="geometry" />
        </mxCell>
        <mxCell id="Nei-xsbEB38eFT0cJwH2-7" value="" style="rounded=0;whiteSpace=wrap;html=1;fillColor=#dae8fc;strokeColor=#6c8ebf;" vertex="1" parent="1">
          <mxGeometry x="320" y="160" width="160" height="200" as="geometry" />
        </mxCell>
        <mxCell id="Nei-xsbEB38eFT0cJwH2-8" value="" style="endArrow=none;html=1;rounded=0;entryX=0;entryY=0;entryDx=0;entryDy=0;" edge="1" source="Nei-xsbEB38eFT0cJwH2-6" target="Nei-xsbEB38eFT0cJwH2-7" parent="1">
          <mxGeometry width="50" height="50" relative="1" as="geometry">
            <mxPoint x="590" y="460" as="sourcePoint" />
            <mxPoint x="640" y="410" as="targetPoint" />
          </mxGeometry>
        </mxCell>
        <mxCell id="Nei-xsbEB38eFT0cJwH2-9" value="" style="endArrow=none;html=1;rounded=0;entryX=1;entryY=0;entryDx=0;entryDy=0;exitX=0;exitY=1;exitDx=0;exitDy=0;fillColor=#dae8fc;strokeColor=#6c8ebf;" edge="1" source="Nei-xsbEB38eFT0cJwH2-7" target="Nei-xsbEB38eFT0cJwH2-7" parent="1">
          <mxGeometry width="50" height="50" relative="1" as="geometry">
            <mxPoint x="486" y="360" as="sourcePoint" />
            <mxPoint x="366" y="170" as="targetPoint" />
          </mxGeometry>
        </mxCell>
        <mxCell id="Nei-xsbEB38eFT0cJwH2-10" value="" style="endArrow=none;html=1;rounded=0;entryX=0;entryY=0;entryDx=0;entryDy=0;exitX=1;exitY=1;exitDx=0;exitDy=0;fillColor=#dae8fc;strokeColor=#6c8ebf;" edge="1" parent="1" source="Nei-xsbEB38eFT0cJwH2-7" target="Nei-xsbEB38eFT0cJwH2-7">
          <mxGeometry width="50" height="50" relative="1" as="geometry">
            <mxPoint x="278" y="360" as="sourcePoint" />
            <mxPoint x="158" y="170" as="targetPoint" />
          </mxGeometry>
        </mxCell>
        <mxCell id="Nei-xsbEB38eFT0cJwH2-11" value="" style="endArrow=classic;html=1;rounded=0;entryX=0.5;entryY=0;entryDx=0;entryDy=0;" edge="1" parent="1" target="Nei-xsbEB38eFT0cJwH2-1">
          <mxGeometry width="50" height="50" relative="1" as="geometry">
            <mxPoint x="80" y="40" as="sourcePoint" />
            <mxPoint x="60" y="340" as="targetPoint" />
            <Array as="points">
              <mxPoint x="80" y="40" />
              <mxPoint x="180" y="40" />
            </Array>
          </mxGeometry>
        </mxCell>
        <mxCell id="Nei-xsbEB38eFT0cJwH2-14" value="" style="endArrow=classic;html=1;rounded=0;exitX=0.5;exitY=1;exitDx=0;exitDy=0;" edge="1" parent="1" source="Nei-xsbEB38eFT0cJwH2-6">
          <mxGeometry width="50" height="50" relative="1" as="geometry">
            <mxPoint x="400" y="490" as="sourcePoint" />
            <mxPoint x="530" y="490" as="targetPoint" />
            <Array as="points">
              <mxPoint x="400" y="490" />
            </Array>
          </mxGeometry>
        </mxCell>
        <mxCell id="Nei-xsbEB38eFT0cJwH2-15" value="&lt;font style=&quot;font-size: 14px;&quot;&gt;V&lt;sub&gt;1&lt;/sub&gt;&lt;/font&gt;" style="text;strokeColor=none;align=center;fillColor=none;html=1;verticalAlign=middle;whiteSpace=wrap;rounded=0;fontStyle=1" vertex="1" parent="1">
          <mxGeometry x="150" y="355" width="60" height="30" as="geometry" />
        </mxCell>
        <mxCell id="Nei-xsbEB38eFT0cJwH2-16" value="&lt;font style=&quot;font-size: 14px;&quot;&gt;V&lt;sub&gt;2&lt;/sub&gt;&lt;/font&gt;" style="text;strokeColor=none;align=center;fillColor=none;html=1;verticalAlign=middle;whiteSpace=wrap;rounded=0;fontStyle=1" vertex="1" parent="1">
          <mxGeometry x="370" y="380" width="60" height="30" as="geometry" />
        </mxCell>
        <mxCell id="Nei-xsbEB38eFT0cJwH2-17" value="&lt;span style=&quot;font-size: 14px;&quot;&gt;Сырье&lt;/span&gt;" style="text;strokeColor=none;align=center;fillColor=none;html=1;verticalAlign=middle;whiteSpace=wrap;rounded=0;fontStyle=1" vertex="1" parent="1">
          <mxGeometry x="100" y="10" width="60" height="30" as="geometry" />
        </mxCell>
        <mxCell id="Nei-xsbEB38eFT0cJwH2-18" value="&lt;span style=&quot;font-size: 14px;&quot;&gt;Продукты&lt;/span&gt;" style="text;strokeColor=none;align=center;fillColor=none;html=1;verticalAlign=middle;whiteSpace=wrap;rounded=0;fontStyle=1" vertex="1" parent="1">
          <mxGeometry x="440" y="460" width="60" height="30" as="geometry" />
        </mxCell>
        <mxCell id="Nei-xsbEB38eFT0cJwH2-19" value="" style="triangle;whiteSpace=wrap;html=1;rotation=-90;fillColor=#e1d5e7;strokeColor=#9673a6;" vertex="1" parent="1">
          <mxGeometry x="150" y="505" width="60" height="80" as="geometry" />
        </mxCell>
        <mxCell id="Nei-xsbEB38eFT0cJwH2-22" value="" style="edgeStyle=orthogonalEdgeStyle;rounded=0;orthogonalLoop=1;jettySize=auto;html=1;entryX=0.5;entryY=0;entryDx=0;entryDy=0;exitX=0;exitY=0.75;exitDx=0;exitDy=0;" edge="1" parent="1" source="Nei-xsbEB38eFT0cJwH2-19" target="Nei-xsbEB38eFT0cJwH2-6">
          <mxGeometry relative="1" as="geometry">
            <mxPoint x="280" y="490" as="sourcePoint" />
            <mxPoint x="280" y="615" as="targetPoint" />
            <Array as="points">
              <mxPoint x="200" y="620" />
              <mxPoint x="270" y="620" />
              <mxPoint x="270" y="40" />
              <mxPoint x="400" y="40" />
            </Array>
          </mxGeometry>
        </mxCell>
        <mxCell id="Nei-xsbEB38eFT0cJwH2-23" value="" style="endArrow=classic;html=1;rounded=0;exitX=0;exitY=0.25;exitDx=0;exitDy=0;" edge="1" parent="1" source="Nei-xsbEB38eFT0cJwH2-19">
          <mxGeometry width="50" height="50" relative="1" as="geometry">
            <mxPoint x="160" y="585" as="sourcePoint" />
            <mxPoint x="290" y="680" as="targetPoint" />
            <Array as="points">
              <mxPoint x="160" y="680" />
            </Array>
          </mxGeometry>
        </mxCell>
        <mxCell id="Nei-xsbEB38eFT0cJwH2-24" value="&lt;span style=&quot;font-size: 14px;&quot;&gt;Бензол, Н&lt;sub&gt;2&lt;/sub&gt;&lt;/span&gt;" style="text;strokeColor=none;align=center;fillColor=none;html=1;verticalAlign=middle;whiteSpace=wrap;rounded=0;fontStyle=1" vertex="1" parent="1">
          <mxGeometry x="190" y="650" width="80" height="30" as="geometry" />
        </mxCell>
        <mxCell id="Nei-xsbEB38eFT0cJwH2-25" value="&lt;span style=&quot;font-size: 14px;&quot;&gt;Циклогексан, н-Гексан&lt;/span&gt;" style="text;strokeColor=none;align=center;fillColor=none;html=1;verticalAlign=middle;whiteSpace=wrap;rounded=0;fontStyle=1" vertex="1" parent="1">
          <mxGeometry x="254" y="10" width="160" height="30" as="geometry" />
        </mxCell>
        <mxCell id="Nei-xsbEB38eFT0cJwH2-26" value="&lt;span style=&quot;font-size: 14px;&quot;&gt;ComponentSplitter&lt;/span&gt;" style="text;strokeColor=none;align=center;fillColor=none;html=1;verticalAlign=middle;whiteSpace=wrap;rounded=0;fontStyle=1" vertex="1" parent="1">
          <mxGeometry x="30" y="520" width="120" height="30" as="geometry" />
        </mxCell>
      </root>
    </mxGraphModel>
  </diagram>
</mxfile>
